<?xml version="1.0" encoding="UTF-8" standalone="no"?>
<!-- Created with Inkscape (http://www.inkscape.org/) -->

<svg
   xmlns:dc="http://purl.org/dc/elements/1.1/"
   xmlns:cc="http://creativecommons.org/ns#"
   xmlns:rdf="http://www.w3.org/1999/02/22-rdf-syntax-ns#"
   xmlns:svg="http://www.w3.org/2000/svg"
   xmlns="http://www.w3.org/2000/svg"
   version="1.1"
   width="123.38875"
   height="43.783249"
   id="svg3401">
  <defs
     id="defs3403">
    <clipPath
       id="clipPath3093">
      <path
         d="m 462.241,49.606 97.925,0 0,34.227 -97.925,0 0,-34.227 z"
         id="path3095" />
    </clipPath>
  </defs>
  <metadata
     id="metadata3406">
    <rdf:RDF>
      <cc:Work
         rdf:about="">
        <dc:format>image/svg+xml</dc:format>
        <dc:type
           rdf:resource="http://purl.org/dc/dcmitype/StillImage" />
        <dc:title></dc:title>
      </cc:Work>
    </rdf:RDF>
  </metadata>
  <g
     transform="translate(-173.83271,-397.43484)"
     id="layer1">
    <g
       transform="matrix(1.25,0,0,-1.25,-403.46879,502.72597)"
       id="g3089">
      <g
         clip-path="url(#clipPath3093)"
         id="g3091">
        <g
           transform="translate(508.2772,62.525)"
           id="g3097">
          <path
             d="M 0,0 51.889,0"
             id="path3099"
             style="fill:none;stroke:#707173;stroke-width:0.46200001;stroke-linecap:butt;stroke-linejoin:miter;stroke-miterlimit:4;stroke-opacity:1;stroke-dasharray:none" />
        </g>
        <g
           transform="translate(517.511,77.0594)"
           id="g3101">
          <path
             d="m 0,0 -1.872,0 0,-7.211 c 0,-1.791 -0.96,-2.817 -2.633,-2.817 -1.653,0 -2.564,1 -2.564,2.817 l 0,7.211 -2.083,0 0,-7.465 c 0,-1.43 0.41,-2.554 1.219,-3.34 0.733,-0.732 1.799,-1.121 3.08,-1.121 1.16,0 2.199,0.415 3.004,1.144 l 0,-1.006 2.059,0 L 0.21,0 0,0 z"
             id="path3103"
             style="fill:#7b7c7e;fill-opacity:1;fill-rule:nonzero;stroke:none" />
        </g>
        <g
           transform="translate(522.4576,80.5497)"
           id="g3105">
          <path
             d="m 0,0 -1.873,0 0,-3.559 -1.434,0 0,-1.689 1.434,0 0,-6.771 c 0,-1.979 1.225,-3.259 3.12,-3.259 l 1.388,0 0,1.85 -1.088,0 c -0.9,0 -1.338,0.477 -1.338,1.456 l 0,6.724 2.426,0 0,1.689 -2.426,0 L 0.209,0 0,0 z"
             id="path3107"
             style="fill:#7b7c7e;fill-opacity:1;fill-rule:nonzero;stroke:none" />
        </g>
        <g
           transform="translate(526.1982,71.1653)"
           id="g3109">
          <path
             d="m 0,0 c 0,-3.72 2.011,-6.032 5.248,-6.032 1.655,0 2.711,0.475 3.897,1.753 L 9.285,-4.128 7.847,-2.75 7.705,-2.91 C 6.878,-3.826 6.257,-4.134 5.248,-4.134 4.19,-4.134 3.339,-3.717 2.784,-2.929 2.286,-2.236 2.083,-1.387 2.083,0 c 0,1.389 0.203,2.236 0.7,2.928 0.556,0.791 1.407,1.208 2.465,1.208 1.024,0 1.644,-0.304 2.457,-1.202 L 7.847,2.776 9.285,4.127 9.145,4.279 C 7.959,5.558 6.903,6.034 5.248,6.034 2.011,6.034 0,3.722 0,0"
             id="path3111"
             style="fill:#7b7c7e;fill-opacity:1;fill-rule:nonzero;stroke:none" />
        </g>
        <g
           transform="translate(468.3644,63.2563)"
           id="g3113">
          <path
             d="m 0,0 0,-12.238 32.814,0 0,20.232 C 22.123,6.155 16.529,3.608 6.842,-1.431 L 0,0 z"
             id="path3115"
             style="fill:#ffd600;fill-opacity:1;fill-rule:nonzero;stroke:none" />
        </g>
        <g
           transform="translate(501.1782,83.8329)"
           id="g3117">
          <path
             d="m 0,0 -32.814,0 0,-14.393 c 10.898,3.954 22.503,6.461 32.814,7.271 L 0,0 z"
             id="path3119"
             style="fill:#ffd600;fill-opacity:1;fill-rule:nonzero;stroke:none" />
        </g>
        <g
           transform="translate(501.1782,76.7113)"
           id="g3121">
          <path
             d="m 0,0 c -10.311,-0.81 -21.916,-3.317 -32.814,-7.272 -2.07,-0.751 -4.118,-1.549 -6.123,-2.403 l 12.966,-3.148 c 10.488,5.456 17.005,7.939 29.562,9.875 l 0,3.172 C 2.416,0.176 1.214,0.095 0,0"
             id="path3123"
             style="fill:#7b7c7e;fill-opacity:1;fill-rule:nonzero;stroke:none" />
        </g>
        <g
           transform="translate(509.6576,57.2682)"
           id="g3125">
          <path
             d="m 0,0 c -0.712,0 -1.277,0.482 -1.277,1.219 l 0,2.28 0.677,0 0,-2.256 c 0,-0.4 0.234,-0.639 0.6,-0.639 0.365,0 0.604,0.239 0.604,0.639 l 0,2.256 0.673,0 0,-2.28 C 1.277,0.482 0.711,0 0,0"
             id="path3127"
             style="fill:#707173;fill-opacity:1;fill-rule:nonzero;stroke:none" />
        </g>
        <g
           transform="translate(512.9232,57.2976)"
           id="g3129">
          <path
             d="m 0,0 0,1.535 c 0,0.346 -0.22,0.463 -0.42,0.463 -0.199,0 -0.423,-0.117 -0.423,-0.463 l 0,-1.535 -0.634,0 0,2.539 0.619,0 0,-0.234 c 0.166,0.176 0.4,0.263 0.633,0.263 0.254,0 0.459,-0.082 0.6,-0.224 C 0.58,2.139 0.633,1.901 0.633,1.623 L 0.633,0 0,0 z"
             id="path3131"
             style="fill:#707173;fill-opacity:1;fill-rule:nonzero;stroke:none" />
        </g>
        <path
           d="m 514.678,59.837 -0.633,0 0,-2.539 0.633,0 0,2.539 z m 0.005,0.95 -0.648,0 0,-0.516 0.648,0 0,0.516 z"
           id="path3133"
           style="fill:#707173;fill-opacity:1;fill-rule:nonzero;stroke:none" />
        <g
           transform="translate(516.286,57.2976)"
           id="g3135">
          <path
             d="m 0,0 -0.497,0 -0.936,2.539 0.667,0 0.518,-1.57 0.511,1.57 0.668,0 L 0,0 z"
             id="path3137"
             style="fill:#707173;fill-opacity:1;fill-rule:nonzero;stroke:none" />
        </g>
        <g
           transform="translate(518.7523,59.0763)"
           id="g3139">
          <path
             d="M 0,0 C -0.068,0.151 -0.21,0.263 -0.424,0.263 -0.639,0.263 -0.78,0.151 -0.848,0 -0.887,-0.093 -0.902,-0.161 -0.907,-0.273 l 0.965,0 C 0.053,-0.161 0.039,-0.093 0,0 m -0.907,-0.707 c 0,-0.326 0.2,-0.565 0.556,-0.565 0.278,0 0.414,0.078 0.575,0.239 l 0.385,-0.376 c -0.258,-0.258 -0.507,-0.399 -0.965,-0.399 -0.6,0 -1.175,0.273 -1.175,1.301 0,0.829 0.449,1.296 1.107,1.296 0.706,0 1.106,-0.516 1.106,-1.213 l 0,-0.283 -1.589,0 z"
             id="path3141"
             style="fill:#707173;fill-opacity:1;fill-rule:nonzero;stroke:none" />
        </g>
        <g
           transform="translate(521.2038,59.1444)"
           id="g3143">
          <path
             d="m 0,0 c -0.098,0.098 -0.181,0.151 -0.337,0.151 -0.195,0 -0.409,-0.146 -0.409,-0.467 l 0,-1.531 -0.633,0 0,2.539 0.618,0 0,-0.243 c 0.123,0.146 0.366,0.272 0.639,0.272 0.249,0 0.424,-0.063 0.6,-0.239 L 0,0 z"
             id="path3145"
             style="fill:#707173;fill-opacity:1;fill-rule:nonzero;stroke:none" />
        </g>
        <g
           transform="translate(522.6313,57.2682)"
           id="g3147">
          <path
             d="m 0,0 c -0.399,0 -0.76,0.044 -1.082,0.366 l 0.414,0.414 c 0.21,-0.21 0.483,-0.239 0.678,-0.239 0.219,0 0.449,0.073 0.449,0.263 0,0.127 -0.069,0.215 -0.269,0.234 l -0.399,0.039 c -0.459,0.044 -0.742,0.244 -0.742,0.712 0,0.526 0.464,0.809 0.98,0.809 0.395,0 0.727,-0.069 0.97,-0.298 L 0.61,1.906 c -0.146,0.132 -0.371,0.17 -0.59,0.17 -0.254,0 -0.361,-0.117 -0.361,-0.243 0,-0.093 0.039,-0.2 0.263,-0.22 l 0.4,-0.039 C 0.824,1.525 1.077,1.257 1.077,0.829 1.077,0.268 0.6,0 0,0"
             id="path3149"
             style="fill:#707173;fill-opacity:1;fill-rule:nonzero;stroke:none" />
        </g>
        <path
           d="m 524.679,59.837 -0.634,0 0,-2.539 0.634,0 0,2.539 z m 0.005,0.95 -0.649,0 0,-0.516 0.649,0 0,0.516 z"
           id="path3151"
           style="fill:#707173;fill-opacity:1;fill-rule:nonzero;stroke:none" />
        <g
           transform="translate(525.985,57.2976)"
           id="g3153">
          <path
             d="m 0,0 c -0.517,0 -0.736,0.366 -0.736,0.726 l 0,1.257 -0.268,0 0,0.483 0.268,0 0,0.751 0.634,0 0,-0.751 0.448,0 0,-0.483 -0.448,0 0,-1.218 c 0,-0.146 0.068,-0.229 0.219,-0.229 l 0.229,0 L 0.346,0 0,0 z"
             id="path3155"
             style="fill:#707173;fill-opacity:1;fill-rule:nonzero;stroke:none" />
        </g>
        <g
           transform="translate(527.8611,60.2413)"
           id="g3157">
          <path
             d="m 0,0 -0.424,0 0.312,0.828 0.668,0 L 0,0 z m 0.253,-1.165 c -0.068,0.151 -0.209,0.263 -0.423,0.263 -0.215,0 -0.357,-0.112 -0.424,-0.263 -0.039,-0.093 -0.054,-0.161 -0.059,-0.273 l 0.965,0 c -0.005,0.112 -0.02,0.18 -0.059,0.273 m -0.906,-0.707 c 0,-0.326 0.2,-0.565 0.556,-0.565 0.277,0 0.414,0.078 0.574,0.239 l 0.386,-0.376 c -0.258,-0.258 -0.507,-0.399 -0.965,-0.399 -0.599,0 -1.175,0.273 -1.175,1.301 0,0.829 0.449,1.296 1.107,1.296 0.706,0 1.106,-0.516 1.106,-1.213 l 0,-0.283 -1.589,0 z"
             id="path3159"
             style="fill:#707173;fill-opacity:1;fill-rule:nonzero;stroke:none" />
        </g>
        <g
           transform="translate(531.0778,59.2956)"
           id="g3161">
          <path
             d="m 0,0 c -0.38,0 -0.429,-0.312 -0.429,-0.726 0,-0.415 0.049,-0.731 0.429,-0.731 0.38,0 0.434,0.316 0.434,0.731 C 0.434,-0.312 0.38,0 0,0 m 0.449,-1.998 0,0.239 C 0.273,-1.954 0.088,-2.027 -0.18,-2.027 c -0.249,0 -0.483,0.087 -0.624,0.228 -0.254,0.254 -0.258,0.693 -0.258,1.073 0,0.38 0.004,0.814 0.258,1.067 0.141,0.142 0.37,0.229 0.619,0.229 0.259,0 0.454,-0.068 0.619,-0.253 l 0,1.155 0.634,0 0,-3.47 -0.619,0 z"
             id="path3163"
             style="fill:#707173;fill-opacity:1;fill-rule:nonzero;stroke:none" />
        </g>
        <g
           transform="translate(534.066,59.0763)"
           id="g3165">
          <path
             d="M 0,0 C -0.068,0.151 -0.211,0.263 -0.424,0.263 -0.639,0.263 -0.78,0.151 -0.849,0 -0.887,-0.093 -0.902,-0.161 -0.906,-0.273 l 0.964,0 C 0.054,-0.161 0.038,-0.093 0,0 m -0.906,-0.707 c 0,-0.326 0.199,-0.565 0.555,-0.565 0.277,0 0.414,0.078 0.574,0.239 l 0.386,-0.376 c -0.258,-0.258 -0.507,-0.399 -0.965,-0.399 -0.6,0 -1.175,0.273 -1.175,1.301 0,0.829 0.449,1.296 1.107,1.296 0.706,0 1.106,-0.516 1.106,-1.213 l 0,-0.283 -1.588,0 z"
             id="path3167"
             style="fill:#707173;fill-opacity:1;fill-rule:nonzero;stroke:none" />
        </g>
        <g
           transform="translate(537.4484,60.1631)"
           id="g3169">
          <path
             d="m 0,0 0,-2.866 -0.678,0 0,2.866 -0.906,0 0,0.604 2.491,0 L 0.907,0 0,0 z"
             id="path3171"
             style="fill:#707173;fill-opacity:1;fill-rule:nonzero;stroke:none" />
        </g>
        <g
           transform="translate(539.7434,59.0763)"
           id="g3173">
          <path
             d="M 0,0 C -0.069,0.151 -0.21,0.263 -0.424,0.263 -0.639,0.263 -0.78,0.151 -0.849,0 -0.888,-0.093 -0.902,-0.161 -0.907,-0.273 l 0.965,0 C 0.054,-0.161 0.038,-0.093 0,0 m -0.907,-0.707 c 0,-0.326 0.2,-0.565 0.556,-0.565 0.277,0 0.414,0.078 0.574,0.239 l 0.386,-0.376 c -0.258,-0.258 -0.507,-0.399 -0.966,-0.399 -0.599,0 -1.174,0.273 -1.174,1.301 0,0.829 0.449,1.296 1.107,1.296 0.706,0 1.106,-0.516 1.106,-1.213 l 0,-0.283 -1.589,0 z"
             id="path3175"
             style="fill:#707173;fill-opacity:1;fill-rule:nonzero;stroke:none" />
        </g>
        <g
           transform="translate(541.8247,57.2682)"
           id="g3177">
          <path
             d="m 0,0 c -0.508,0 -1.137,0.273 -1.137,1.301 0,1.029 0.629,1.297 1.137,1.297 0.35,0 0.614,-0.107 0.838,-0.342 L 0.409,1.827 C 0.277,1.969 0.165,2.027 0,2.027 -0.152,2.027 -0.268,1.974 -0.362,1.861 -0.459,1.74 -0.503,1.569 -0.503,1.301 -0.503,1.033 -0.459,0.857 -0.362,0.736 -0.268,0.624 -0.152,0.57 0,0.57 c 0.165,0 0.277,0.059 0.409,0.2 L 0.838,0.346 C 0.614,0.112 0.35,0 0,0"
             id="path3179"
             style="fill:#707173;fill-opacity:1;fill-rule:nonzero;stroke:none" />
        </g>
        <g
           transform="translate(544.4167,57.2976)"
           id="g3181">
          <path
             d="m 0,0 0,1.549 c 0,0.337 -0.214,0.449 -0.414,0.449 -0.2,0 -0.409,-0.117 -0.409,-0.449 l 0,-1.549 -0.634,0 0,3.47 0.634,0 0,-1.165 c 0.17,0.176 0.385,0.263 0.609,0.263 0.556,0 0.848,-0.39 0.848,-0.926 L 0.634,0 0,0 z"
             id="path3183"
             style="fill:#707173;fill-opacity:1;fill-rule:nonzero;stroke:none" />
        </g>
        <g
           transform="translate(547.0145,57.2976)"
           id="g3185">
          <path
             d="m 0,0 0,1.535 c 0,0.346 -0.219,0.463 -0.419,0.463 -0.2,0 -0.423,-0.117 -0.423,-0.463 l 0,-1.535 -0.635,0 0,2.539 0.619,0 0,-0.234 c 0.167,0.176 0.4,0.263 0.634,0.263 0.254,0 0.458,-0.082 0.6,-0.224 C 0.58,2.139 0.634,1.901 0.634,1.623 L 0.634,0 0,0 z"
             id="path3187"
             style="fill:#707173;fill-opacity:1;fill-rule:nonzero;stroke:none" />
        </g>
        <g
           transform="translate(549.399,59.1832)"
           id="g3189">
          <path
             d="m 0,0 c -0.074,0.074 -0.171,0.112 -0.298,0.112 -0.127,0 -0.22,-0.038 -0.292,-0.112 -0.132,-0.131 -0.147,-0.351 -0.147,-0.614 0,-0.263 0.015,-0.487 0.147,-0.619 0.072,-0.073 0.165,-0.112 0.292,-0.112 0.127,0 0.224,0.039 0.298,0.112 0.131,0.132 0.145,0.356 0.145,0.619 C 0.145,-0.351 0.131,-0.131 0,0 m 0.491,-1.603 c -0.155,-0.166 -0.414,-0.312 -0.789,-0.312 -0.375,0 -0.629,0.146 -0.785,0.312 -0.229,0.239 -0.287,0.526 -0.287,0.989 0,0.458 0.058,0.746 0.287,0.985 0.156,0.165 0.41,0.311 0.785,0.311 0.375,0 0.634,-0.146 0.789,-0.311 0.23,-0.239 0.288,-0.527 0.288,-0.985 0,-0.463 -0.058,-0.75 -0.288,-0.989"
             id="path3191"
             style="fill:#707173;fill-opacity:1;fill-rule:nonzero;stroke:none" />
        </g>
        <g
           transform="translate(551.3037,57.2976)"
           id="g3193">
          <path
             d="m 0,0 c -0.521,0 -0.74,0.366 -0.74,0.726 l 0,2.744 0.633,0 0,-2.705 c 0,-0.151 0.063,-0.229 0.224,-0.229 l 0.244,0 L 0.361,0 0,0 z"
             id="path3195"
             style="fill:#707173;fill-opacity:1;fill-rule:nonzero;stroke:none" />
        </g>
        <g
           transform="translate(553.1418,59.1832)"
           id="g3197">
          <path
             d="M 0,0 C -0.074,0.074 -0.171,0.112 -0.298,0.112 -0.425,0.112 -0.517,0.074 -0.59,0 c -0.132,-0.131 -0.146,-0.351 -0.146,-0.614 0,-0.263 0.014,-0.487 0.146,-0.619 0.073,-0.073 0.165,-0.112 0.292,-0.112 0.127,0 0.224,0.039 0.298,0.112 0.131,0.132 0.146,0.356 0.146,0.619 C 0.146,-0.351 0.131,-0.131 0,0 m 0.492,-1.603 c -0.155,-0.166 -0.415,-0.312 -0.79,-0.312 -0.375,0 -0.628,0.146 -0.784,0.312 -0.23,0.239 -0.288,0.526 -0.288,0.989 0,0.458 0.058,0.746 0.288,0.985 0.156,0.165 0.409,0.311 0.784,0.311 0.375,0 0.635,-0.146 0.79,-0.311 0.229,-0.239 0.288,-0.527 0.288,-0.985 0,-0.463 -0.059,-0.75 -0.288,-0.989"
             id="path3199"
             style="fill:#707173;fill-opacity:1;fill-rule:nonzero;stroke:none" />
        </g>
        <g
           transform="translate(555.2711,59.2956)"
           id="g3201">
          <path
             d="m 0,0 c -0.375,0 -0.414,-0.321 -0.414,-0.657 0,-0.337 0.039,-0.664 0.414,-0.664 0.375,0 0.419,0.327 0.419,0.664 C 0.419,-0.321 0.375,0 0,0 m -0.063,-2.958 c -0.39,0 -0.658,0.077 -0.921,0.331 l 0.394,0.4 c 0.142,-0.137 0.283,-0.195 0.498,-0.195 0.38,0 0.511,0.268 0.511,0.526 l 0,0.259 c -0.165,-0.186 -0.355,-0.254 -0.604,-0.254 -0.248,0 -0.463,0.083 -0.604,0.224 -0.239,0.239 -0.259,0.566 -0.259,1.01 0,0.443 0.02,0.765 0.259,1.003 0.141,0.142 0.36,0.224 0.609,0.224 0.268,0 0.443,-0.072 0.619,-0.267 l 0,0.238 0.614,0 0,-2.447 c 0,-0.609 -0.434,-1.052 -1.116,-1.052"
             id="path3203"
             style="fill:#707173;fill-opacity:1;fill-rule:nonzero;stroke:none" />
        </g>
        <path
           d="m 557.475,59.837 -0.634,0 0,-2.539 0.634,0 0,2.539 z m 0.005,0.95 -0.648,0 0,-0.516 0.648,0 0,0.516 z"
           id="path3205"
           style="fill:#707173;fill-opacity:1;fill-rule:nonzero;stroke:none" />
        <g
           transform="translate(559.3895,59.0763)"
           id="g3207">
          <path
             d="M 0,0 C -0.068,0.151 -0.209,0.263 -0.424,0.263 -0.638,0.263 -0.779,0.151 -0.847,0 -0.887,-0.093 -0.901,-0.161 -0.906,-0.273 l 0.965,0 C 0.054,-0.161 0.039,-0.093 0,0 m -0.906,-0.707 c 0,-0.326 0.199,-0.565 0.555,-0.565 0.279,0 0.415,0.078 0.576,0.239 L 0.61,-1.409 c -0.259,-0.258 -0.508,-0.399 -0.965,-0.399 -0.6,0 -1.175,0.273 -1.175,1.301 0,0.829 0.448,1.296 1.106,1.296 0.707,0 1.106,-0.516 1.106,-1.213 l 0,-0.283 -1.588,0 z"
             id="path3209"
             style="fill:#707173;fill-opacity:1;fill-rule:nonzero;stroke:none" />
        </g>
        <g
           transform="translate(510.125,50.9619)"
           id="g3211">
          <path
             d="m 0,0 c -0.554,0 -1.008,0.199 -1.363,0.554 -0.511,0.512 -0.497,1.143 -0.497,2.017 0,0.873 -0.014,1.505 0.497,2.016 0.355,0.355 0.809,0.554 1.363,0.554 0.944,0 1.683,-0.54 1.86,-1.597 l -1.001,0 C 0.76,3.948 0.504,4.26 0.007,4.26 c -0.27,0 -0.49,-0.099 -0.632,-0.262 -0.191,-0.214 -0.248,-0.454 -0.248,-1.427 0,-0.974 0.057,-1.214 0.248,-1.428 0.142,-0.162 0.362,-0.262 0.632,-0.262 0.497,0 0.753,0.312 0.852,0.716 l 1.001,0 C 1.683,0.54 0.937,0 0,0"
             id="path3213"
             style="fill:#707173;fill-opacity:1;fill-rule:nonzero;stroke:none" />
        </g>
        <g
           transform="translate(514.3214,53.7525)"
           id="g3215">
          <path
             d="m 0,0 c -0.107,0.106 -0.249,0.164 -0.434,0.164 -0.184,0 -0.319,-0.058 -0.425,-0.164 -0.192,-0.191 -0.214,-0.511 -0.214,-0.894 0,-0.384 0.022,-0.71 0.214,-0.902 0.106,-0.106 0.241,-0.163 0.425,-0.163 0.185,0 0.327,0.057 0.434,0.163 0.192,0.192 0.212,0.518 0.212,0.902 C 0.212,-0.511 0.192,-0.191 0,0 M 0.717,-2.336 C 0.49,-2.577 0.113,-2.791 -0.434,-2.791 c -0.546,0 -0.915,0.214 -1.143,0.455 -0.333,0.348 -0.418,0.767 -0.418,1.442 0,0.667 0.085,1.086 0.418,1.433 0.228,0.242 0.597,0.455 1.143,0.455 0.547,0 0.924,-0.213 1.151,-0.455 0.334,-0.347 0.419,-0.766 0.419,-1.433 0,-0.675 -0.085,-1.094 -0.419,-1.442"
             id="path3217"
             style="fill:#707173;fill-opacity:1;fill-rule:nonzero;stroke:none" />
        </g>
        <g
           transform="translate(520.356,51.005)"
           id="g3219">
          <path
             d="m 0,0 0,2.236 c 0,0.505 -0.319,0.675 -0.61,0.675 -0.284,0 -0.618,-0.17 -0.618,-0.653 l 0,-2.258 -0.923,0 0,2.236 c 0,0.505 -0.32,0.675 -0.611,0.675 -0.291,0 -0.618,-0.17 -0.618,-0.675 l 0,-2.236 -0.923,0 0,3.699 0.902,0 0,-0.341 c 0.241,0.249 0.582,0.383 0.923,0.383 0.412,0 0.745,-0.148 0.98,-0.468 0.312,0.327 0.646,0.468 1.108,0.468 0.368,0 0.702,-0.12 0.908,-0.326 C 0.817,3.117 0.923,2.769 0.923,2.364 L 0.923,0 0,0 z"
             id="path3221"
             style="fill:#707173;fill-opacity:1;fill-rule:nonzero;stroke:none" />
        </g>
        <g
           transform="translate(523.5363,53.9163)"
           id="g3223">
          <path
             d="m 0,0 c -0.554,0 -0.624,-0.454 -0.624,-1.058 0,-0.604 0.07,-1.065 0.624,-1.065 0.554,0 0.625,0.461 0.625,1.065 C 0.625,-0.454 0.554,0 0,0 M 1.172,-2.621 C 0.966,-2.826 0.633,-2.954 0.27,-2.954 c -0.376,0 -0.653,0.099 -0.894,0.369 l 0,-1.682 -0.924,0 0,5.055 0.895,0 0,-0.348 c 0.256,0.284 0.532,0.39 0.923,0.39 0.363,0 0.696,-0.128 0.902,-0.334 0.369,-0.369 0.376,-1 0.376,-1.554 0,-0.554 -0.007,-1.193 -0.376,-1.563"
             id="path3225"
             style="fill:#707173;fill-opacity:1;fill-rule:nonzero;stroke:none" />
        </g>
        <path
           d="m 525.681,54.704 0.922,0 0,-3.699 -0.922,0 0,3.699 z m -0.014,1.385 0.944,0 0,-0.753 -0.944,0 0,0.753 z"
           id="path3227"
           style="fill:#707173;fill-opacity:1;fill-rule:nonzero;stroke:none" />
        <g
           transform="translate(529.394,53.5963)"
           id="g3229">
          <path
             d="M 0,0 C -0.1,0.221 -0.305,0.384 -0.618,0.384 -0.93,0.384 -1.137,0.221 -1.236,0 -1.292,-0.134 -1.313,-0.234 -1.321,-0.398 l 1.407,0 C 0.078,-0.234 0.057,-0.134 0,0 m -0.823,1.697 -0.81,1.207 0.973,0 0.454,-1.207 -0.617,0 z m -0.498,-2.726 c 0,-0.476 0.291,-0.824 0.81,-0.824 0.405,0 0.603,0.114 0.838,0.348 l 0.56,-0.547 c -0.376,-0.376 -0.738,-0.582 -1.405,-0.582 -0.873,0 -1.712,0.398 -1.712,1.896 0,1.207 0.654,1.888 1.612,1.888 1.029,0 1.612,-0.752 1.612,-1.768 l 0,-0.411 -2.315,0 z"
             id="path3231"
             style="fill:#707173;fill-opacity:1;fill-rule:nonzero;stroke:none" />
        </g>
        <g
           transform="translate(532.3264,53.9163)"
           id="g3233">
          <path
             d="m 0,0 c -0.547,0 -0.604,-0.469 -0.604,-0.959 0,-0.49 0.057,-0.965 0.604,-0.965 0.546,0 0.611,0.475 0.611,0.965 C 0.611,-0.469 0.546,0 0,0 m -0.093,-4.31 c -0.567,0 -0.959,0.114 -1.341,0.483 l 0.575,0.582 c 0.206,-0.199 0.412,-0.284 0.724,-0.284 0.554,0 0.746,0.391 0.746,0.767 l 0,0.376 c -0.242,-0.27 -0.519,-0.369 -0.881,-0.369 -0.362,0 -0.675,0.121 -0.881,0.327 -0.347,0.347 -0.376,0.823 -0.376,1.469 0,0.646 0.029,1.115 0.376,1.463 0.206,0.206 0.526,0.326 0.888,0.326 0.39,0 0.646,-0.106 0.902,-0.39 l 0,0.348 0.894,0 0,-3.564 c 0,-0.888 -0.632,-1.534 -1.626,-1.534"
             id="path3235"
             style="fill:#707173;fill-opacity:1;fill-rule:nonzero;stroke:none" />
        </g>
        <g
           transform="translate(536.7635,51.005)"
           id="g3237">
          <path
             d="m 0,0 0,2.236 c 0,0.505 -0.32,0.675 -0.611,0.675 -0.291,0 -0.618,-0.17 -0.618,-0.675 l 0,-2.236 -0.923,0 0,3.699 0.902,0 0,-0.341 c 0.241,0.256 0.583,0.383 0.924,0.383 0.368,0 0.667,-0.12 0.873,-0.326 C 0.845,3.117 0.924,2.769 0.924,2.364 L 0.924,0 0,0 z"
             id="path3239"
             style="fill:#707173;fill-opacity:1;fill-rule:nonzero;stroke:none" />
        </g>
        <g
           transform="translate(540.441,53.5963)"
           id="g3241">
          <path
             d="M 0,0 C -0.099,0.221 -0.305,0.384 -0.618,0.384 -0.93,0.384 -1.135,0.221 -1.235,0 -1.292,-0.134 -1.313,-0.234 -1.32,-0.398 l 1.405,0 C 0.079,-0.234 0.056,-0.134 0,0 m -1.32,-1.029 c 0,-0.476 0.291,-0.824 0.809,-0.824 0.405,0 0.603,0.114 0.837,0.348 L 0.888,-2.052 C 0.511,-2.428 0.15,-2.634 -0.518,-2.634 c -0.873,0 -1.711,0.398 -1.711,1.896 0,1.207 0.653,1.888 1.611,1.888 1.029,0 1.612,-0.752 1.612,-1.768 l 0,-0.411 -2.314,0 z"
             id="path3243"
             style="fill:#707173;fill-opacity:1;fill-rule:nonzero;stroke:none" />
        </g>
      </g>
    </g>
  </g>
</svg>
